# xmcd
#
# Track frame offsets: 
#        150
#        19881
#        47738
#        62243
#        88100
#        127022
#        146926
#        161812
#        178504
#        204664
#        213660
#        232170
#        256518
#        275568
#        309381
#        322430
#        339080
#
# Disc length: 4776 seconds
#
# Revision: 1
# Processed by: cddbd v1.5.2PL0 Copyright (c) Steve Scherf et al.
# Submitted via: ExactAudioCopy v1.3
#
DISCID=0d12a611
DTITLE=Various Artist - Akella Presents - vol.61 - Blues Instrumental
DTITLE=CD1
DYEAR=2016
DGENRE=Blues
TTITLE0=Martin J. Andersen - The Fire Burns Within
TTITLE1=Tom Principato - In The Clouds
TTITLE2=JP Stingray - After Hours
TTITLE3=Jimmy Adler - B.B.'s Blues
TTITLE4=Bluesville Station - Gran Chicama
TTITLE5=Nobby Reed Project - Joyride
TTITLE6=Smokehouse - Evil Woman
TTITLE7=Mick Clarke - Horse Bolt Stomp
TTITLE8=The Buddaheads - Long Haul
TTITLE9=Keith Scott - Walking Alone
TTITLE10=Arlen Roth - Steel Guitar Rag
TTITLE11=Jay Jesse Johnson - River Of Dreams
TTITLE12=Gregor Hilden - On Flow
TTITLE13=Bruno Marini - Peter Gunn
TTITLE14=Rob Tognoni - 2.00
TTITLE15=Jeremy Spencer - Sounds Like Paris
TTITLE16=Jeff Pitchell - Heavy Hitter
EXTD=
EXTT0=
EXTT1=
EXTT2=
EXTT3=
EXTT4=
EXTT5=
EXTT6=
EXTT7=
EXTT8=
EXTT9=
EXTT10=
EXTT11=
EXTT12=
EXTT13=
EXTT14=
EXTT15=
EXTT16=
PLAYORDER=
